<mxfile host="app.diagrams.net" modified="2023-11-26T16:02:28.674Z" agent="Mozilla/5.0 (X11; Linux x86_64; rv:109.0) Gecko/20100101 Firefox/115.0" version="22.1.4" etag="KcpziPPZ7A3WbIi01ORf" type="github">
  <diagram name="Page-1" id="X-2ke_P4Y_r22uEaeBYm">
    <mxGraphModel>
      <root>
        <mxCell id="0" />
        <mxCell id="1" parent="0" />
      </root>
    </mxGraphModel>
  </diagram>
</mxfile>
